<svg xmlns="http://www.w3.org/2000/svg" xmlns:xlink="http://www.w3.org/1999/xlink" viewBox="0 0 136.74 33.14"><defs><style>.cls-1{fill:none;}.cls-2{fill:#c0211d;}.cls-3{fill:#76787f;}.cls-4{clip-path:url(#clip-path);}.cls-5{fill:#fff;}</style><clipPath id="clip-path" transform="translate(-0.09 0.04)"><rect id="SVGID" class="cls-1" width="42.31" height="33.26"/></clipPath></defs><title>logorentabilidad</title><g id="Capa_2" data-name="Capa 2"><g id="Capa_3" data-name="Capa 3"><path class="cls-2" d="M55.43,14.15l-.21.74h-.51a1,1,0,0,1-.47-.09.8.8,0,0,1-.31-.3l-1-1.54a.33.33,0,0,0-.14-.13.51.51,0,0,0-.21,0h-.71v2.09H51V9.27h2a2.4,2.4,0,0,1,1.51.42A1.49,1.49,0,0,1,55.05,11a1.83,1.83,0,0,1-.34,1.13,1.58,1.58,0,0,1-1,.59l.83,1.23a.74.74,0,0,0,.19.2.63.63,0,0,0,.28.05ZM53,12.06a1.24,1.24,0,0,0,.88-.28,1,1,0,0,0,.3-.78c0-.65-.4-1-1.19-1H51.83v2Z" transform="translate(-0.09 0.04)"/><path class="cls-2" d="M59.07,9.27h3.75l-.26.75H59.94v1.77h2.3l0,.74H59.94v1.62h2.89l-.26.74h-3.5Z" transform="translate(-0.09 0.04)"/><path class="cls-2" d="M66.54,9.27h.66l3.22,4.06V9.27h.82v5.62h-.6l-3.29-4.15v4.15h-.81Z" transform="translate(-0.09 0.04)"/><path class="cls-2" d="M76.62,10H74.73V9.27h4.79l-.25.75H77.49v4.87h-.87Z" transform="translate(-0.09 0.04)"/><path class="cls-2" d="M84.21,9.26h.71l2.28,5.63h-.92l-.52-1.3h-2.4l-.52,1.3H81.9Zm1.26,3.58-.87-2.26h-.07l-.88,2.26Z" transform="translate(-0.09 0.04)"/><path class="cls-2" d="M90.42,9.27h2c1.25,0,1.88.48,1.88,1.42a1.18,1.18,0,0,1-.76,1.2v0a1.38,1.38,0,0,1,.81.47,1.41,1.41,0,0,1,.29.92,1.38,1.38,0,0,1-.55,1.19,2.44,2.44,0,0,1-1.49.4H90.42Zm2.08,2.37a1.1,1.1,0,0,0,.72-.21.8.8,0,0,0,.25-.63.69.69,0,0,0-.24-.59,1.26,1.26,0,0,0-.74-.19h-1.2v1.62Zm.14,2.51c.76,0,1.13-.3,1.13-.89a.79.79,0,0,0-.28-.67,1.47,1.47,0,0,0-.87-.21H91.29v1.77Z" transform="translate(-0.09 0.04)"/><path class="cls-2" d="M98.28,9.27h.86v5.62h-.86Z" transform="translate(-0.09 0.04)"/><path class="cls-2" d="M103.48,14.62a1.19,1.19,0,0,1-.26-.84V9.27h.86v4.3a.67.67,0,0,0,.12.45.61.61,0,0,0,.43.13h2.2l-.25.74h-2.26A1.13,1.13,0,0,1,103.48,14.62Z" transform="translate(-0.09 0.04)"/><path class="cls-2" d="M109.93,9.27h.86v5.62h-.86Z" transform="translate(-0.09 0.04)"/><path class="cls-2" d="M114.88,9.27h2a3.41,3.41,0,0,1,2.28.66A2.6,2.6,0,0,1,120,12a2.74,2.74,0,0,1-.87,2.22,3.42,3.42,0,0,1-2.26.66h-2ZM117,14.15a2.14,2.14,0,0,0,1.61-.56,2.23,2.23,0,0,0,.51-1.59,1.92,1.92,0,0,0-.55-1.53,2.5,2.5,0,0,0-1.66-.45h-1.11v4.13Z" transform="translate(-0.09 0.04)"/><path class="cls-2" d="M125.54,9.26h.71l2.28,5.63h-.93l-.51-1.3h-2.41l-.51,1.3h-.94Zm1.26,3.58-.88-2.26h-.06L125,12.84Z" transform="translate(-0.09 0.04)"/><path class="cls-2" d="M131.75,9.27h2a3.41,3.41,0,0,1,2.28.66,2.6,2.6,0,0,1,.79,2.08,2.74,2.74,0,0,1-.87,2.22,3.44,3.44,0,0,1-2.26.66h-2Zm2.07,4.88a2.14,2.14,0,0,0,1.61-.56,2.23,2.23,0,0,0,.51-1.59,1.92,1.92,0,0,0-.55-1.53,2.51,2.51,0,0,0-1.66-.45h-1.11v4.13Z" transform="translate(-0.09 0.04)"/><rect class="cls-3" x="50.26" y="6.88" width="86.44" height="0.58"/><rect class="cls-3" x="50.26" y="16.43" width="86.44" height="0.58"/><g class="cls-4"><path class="cls-2" d="M42.42,14.72c0,24.51-42.33,24.51-42.33,0V0H42.42Z" transform="translate(-0.09 0.04)"/><path class="cls-5" d="M12.28,14.32a1,1,0,0,1-.74-.25,1,1,0,0,1-.12-.85,2,2,0,0,1,1.81-1.71.73.73,0,0,1,.57.22.87.87,0,0,1,.12.73c-.36,1.77-1.43,1.86-1.64,1.86m1-3.5A3.27,3.27,0,0,0,10,13.13C9.65,14.67,11,15,11.9,15a3.29,3.29,0,0,0,3.47-2.37c.27-1.16-.76-1.82-2.12-1.82" transform="translate(-0.09 0.04)"/><path class="cls-5" d="M26.33,13c-.75.08-1,.27-1.09.63s.14.56.83.53a3.19,3.19,0,0,0,1.16-.27l.35-.91a7.18,7.18,0,0,0-1.25,0m-1.11-2a9.78,9.78,0,0,1,2-.18c1.52,0,2.46.51,2,1.65l-.55,1.44a1.53,1.53,0,0,0-.13,1.05,3.34,3.34,0,0,0-1.11-.11c-.67,0-1,.19-2.05.19s-1.62-.59-1.58-1.21a1.49,1.49,0,0,1,1-1.29,4.27,4.27,0,0,1,1.36-.27,10.45,10.45,0,0,1,1.7,0c.06-.21.15-.62-.86-.63a6.86,6.86,0,0,0-2.15.29Z" transform="translate(-0.09 0.04)"/><path class="cls-5" d="M20.28,14.22c-.83,0-.76-.81-.46-1.43a2,2,0,0,1,1.6-1.19,1.13,1.13,0,0,1,.89.26c-.56,2.19-1.7,2.36-2,2.36M23.4,11c-.73,0-.76-.2-1.94-.2a3.33,3.33,0,0,0-3.3,2.64,1.31,1.31,0,0,0,.31,1.1,1.55,1.55,0,0,0,1.12.41,3.07,3.07,0,0,0,1.92-.5,2.3,2.3,0,0,1-2.37,1.26A2.85,2.85,0,0,1,18,15.55l-.36.89a5.47,5.47,0,0,0,1.31.16c2,0,3.27-.71,3.8-2.11l1.36-3.58a3.23,3.23,0,0,1-.68.11" transform="translate(-0.09 0.04)"/><path class="cls-5" d="M9.47,13.77a4,4,0,0,1-1.38.31c-1.34,0-1.75-.82-1.6-1.61a3,3,0,0,1,3-2.29,3.21,3.21,0,0,1,1.23.24l.44-.84a3.49,3.49,0,0,0-1.37-.27c-2.38,0-4.61,1.35-4.92,3.16C4.57,14.06,6,15,7.64,15A6.28,6.28,0,0,0,9,14.78Z" transform="translate(-0.09 0.04)"/><path class="cls-5" d="M32.21,10.79l.3-.8L31,10.25l-.2.54h-.67l-.24.66h.66l-.79,2a1.16,1.16,0,0,0,0,1.12,1.28,1.28,0,0,0,1.08.36,4.28,4.28,0,0,0,1-.15l.32-.77h0a2.47,2.47,0,0,1-.71.16.33.33,0,0,1-.33-.12c-.09-.11-.07-.35.06-.67,0,0,.66-1.61.77-1.89h1l.25-.66Z" transform="translate(-0.09 0.04)"/><path class="cls-5" d="M35.74,11.48a.64.64,0,0,1,.54.19.79.79,0,0,1,0,.72H34.45a1.3,1.3,0,0,1,1.29-.91M36.82,14h0a4.14,4.14,0,0,1-1.54.29,1.12,1.12,0,0,1-.91-.37.94.94,0,0,1-.14-.84h3.26v0a1.8,1.8,0,0,0-.09-1.73,1.78,1.78,0,0,0-1.48-.56,3.2,3.2,0,0,0-3.19,2.08A1.69,1.69,0,0,0,33,14.42a2.35,2.35,0,0,0,1.85.7,5.79,5.79,0,0,0,1.55-.24Z" transform="translate(-0.09 0.04)"/><path class="cls-5" d="M35.74,11.48a.64.64,0,0,1,.54.19.79.79,0,0,1,0,.72H34.45a1.3,1.3,0,0,1,1.29-.91M36.82,14h0a4.14,4.14,0,0,1-1.54.29,1.12,1.12,0,0,1-.91-.37.94.94,0,0,1-.14-.84h3.26v0a1.8,1.8,0,0,0-.09-1.73,1.78,1.78,0,0,0-1.48-.56,3.2,3.2,0,0,0-3.19,2.08A1.69,1.69,0,0,0,33,14.42a2.35,2.35,0,0,0,1.85.7,5.79,5.79,0,0,0,1.55-.24Z" transform="translate(-0.09 0.04)"/><path class="cls-5" d="M38.19,10.55h.05c.06,0,.1,0,.1-.07a.08.08,0,0,0-.09-.07h-.06Zm0,.31H38v-.54l.24,0a.39.39,0,0,1,.22,0,.14.14,0,0,1,.05.12s-.05.1-.12.12h0c.06,0,.09.06.11.14a.68.68,0,0,0,0,.13h-.19a.28.28,0,0,1,0-.12c0-.05,0-.08-.09-.08h-.05Zm.06-.72a.41.41,0,0,0-.41.44.42.42,0,0,0,.42.44.43.43,0,0,0,.43-.44.42.42,0,0,0-.43-.44Zm0-.15a.59.59,0,1,1-.61.59.58.58,0,0,1,.61-.59Z" transform="translate(-0.09 0.04)"/><polygon class="cls-5" points="17.31 9.46 15.18 14.96 16.59 14.96 18.72 9.46 17.31 9.46"/><path class="cls-5" d="M30.18,16.8h0a12.9,12.9,0,0,1-4,3.08,10.8,10.8,0,0,1-9.56,0,12.74,12.74,0,0,1-4-3.08l-.41,1.05a11.11,11.11,0,0,0,9.18,4.87,11.06,11.06,0,0,0,9.17-4.89Z" transform="translate(-0.09 0.04)"/></g><path class="cls-3" d="M50.66,19.88H51.8a1.37,1.37,0,0,1,.89.25.94.94,0,0,1,.31.78,1.05,1.05,0,0,1-.29.8,1.17,1.17,0,0,1-.86.28H51.3v1h-.64Zm1.14,1.55a.61.61,0,0,0,.41-.13.5.5,0,0,0,.13-.38c0-.32-.18-.48-.55-.48H51.3v1Z" transform="translate(-0.09 0.04)"/><path class="cls-3" d="M54.16,19.88h.59L56,23h-.69l-.23-.6H53.84l-.23.6h-.72Zm.69,1.91-.38-1h0l-.38,1Z" transform="translate(-0.09 0.04)"/><path class="cls-3" d="M58.92,22.39l-.16.56h-.28a.6.6,0,0,1-.29-.06,1,1,0,0,1-.22-.23L57.51,22a.22.22,0,0,0-.09-.08.24.24,0,0,0-.13,0H57V23h-.64V19.88h1.23a1.35,1.35,0,0,1,.85.23.9.9,0,0,1,.29.75,1.12,1.12,0,0,1-.15.56.8.8,0,0,1-.46.36l.36.51a.22.22,0,0,0,.09.08l.18,0Zm-1.38-1.05c.36,0,.53-.15.53-.46a.4.4,0,0,0-.13-.34.67.67,0,0,0-.41-.1H57v.9Z" transform="translate(-0.09 0.04)"/><path class="cls-3" d="M60.37,19.88H61L62.19,23H61.5l-.23-.6H60.05l-.23.6h-.71Zm.69,1.91-.38-1h0l-.38,1Z" transform="translate(-0.09 0.04)"/><path class="cls-3" d="M63.42,22.81l0-.59a2.08,2.08,0,0,0,.46.16,1.69,1.69,0,0,0,.48.07.72.72,0,0,0,.41-.1.35.35,0,0,0,.13-.27.24.24,0,0,0-.06-.18.51.51,0,0,0-.18-.12l-.43-.16a1.43,1.43,0,0,1-.63-.35.86.86,0,0,1-.19-.58.72.72,0,0,1,.15-.45,1,1,0,0,1,.42-.3,1.62,1.62,0,0,1,.61-.11,3.11,3.11,0,0,1,.43,0l.38.07,0,.57a2.83,2.83,0,0,0-.76-.12.83.83,0,0,0-.4.08.23.23,0,0,0-.13.21.25.25,0,0,0,0,.17.38.38,0,0,0,.18.13l.38.14a3.3,3.3,0,0,1,.51.21.8.8,0,0,1,.27.28.83.83,0,0,1,.09.41.91.91,0,0,1-.15.52.92.92,0,0,1-.41.34,1.43,1.43,0,0,1-.6.12A3,3,0,0,1,63.42,22.81Z" transform="translate(-0.09 0.04)"/><path class="cls-3" d="M66.38,22.69a1.2,1.2,0,0,1-.33-.92V19.88h.64v1.86a.77.77,0,0,0,.17.51.61.61,0,0,0,.49.19.6.6,0,0,0,.49-.19.72.72,0,0,0,.17-.51V19.88h.65v1.89a1.21,1.21,0,0,1-.34.92,1.41,1.41,0,0,1-1,.3A1.43,1.43,0,0,1,66.38,22.69Z" transform="translate(-0.09 0.04)"/><path class="cls-3" d="M70.89,22.79a1.37,1.37,0,0,1-.56-.56,1.77,1.77,0,0,1-.18-.8,1.62,1.62,0,0,1,.2-.83,1.51,1.51,0,0,1,.58-.57,1.82,1.82,0,0,1,.86-.2,2.47,2.47,0,0,1,.84.13l0,.56-.34-.09-.41,0a1.15,1.15,0,0,0-.53.12.84.84,0,0,0-.36.34,1.09,1.09,0,0,0-.13.55,1,1,0,0,0,.27.75,1,1,0,0,0,.76.27l.4,0,.35-.08,0,.54a2.28,2.28,0,0,1-.38.1,3.33,3.33,0,0,1-.46,0A1.8,1.8,0,0,1,70.89,22.79Z" transform="translate(-0.09 0.04)"/><path class="cls-3" d="M73.71,22.8a1.44,1.44,0,0,1-.57-.55,1.69,1.69,0,0,1,0-1.67,1.44,1.44,0,0,1,.57-.55,1.59,1.59,0,0,1,.78-.2,1.64,1.64,0,0,1,.8.2,1.41,1.41,0,0,1,.56.55,1.59,1.59,0,0,1,.21.84,1.63,1.63,0,0,1-.21.83,1.41,1.41,0,0,1-.56.55,1.63,1.63,0,0,1-.8.19A1.58,1.58,0,0,1,73.71,22.8ZM75,22.3a.75.75,0,0,0,.32-.36,1.11,1.11,0,0,0,.12-.52,1.12,1.12,0,0,0-.12-.53.83.83,0,0,0-.32-.37.92.92,0,0,0-.47-.13.84.84,0,0,0-.78.5,1.12,1.12,0,0,0-.12.53,1.11,1.11,0,0,0,.12.52.89.89,0,0,0,.78.5A.84.84,0,0,0,75,22.3Z" transform="translate(-0.09 0.04)"/><path class="cls-3" d="M76.55,19.88H77l1.58,1.92V19.88h.61V23h-.44l-1.6-2v2h-.61Z" transform="translate(-0.09 0.04)"/><path class="cls-3" d="M79.66,22.81l0-.59a2.27,2.27,0,0,0,.46.16,1.71,1.71,0,0,0,.49.07.69.69,0,0,0,.4-.1.32.32,0,0,0,.13-.27.3.3,0,0,0-.05-.18.48.48,0,0,0-.19-.12l-.43-.16a1.39,1.39,0,0,1-.62-.35.81.81,0,0,1-.19-.58.72.72,0,0,1,.15-.45.86.86,0,0,1,.41-.3,1.66,1.66,0,0,1,.61-.11,3.25,3.25,0,0,1,.44,0l.38.07,0,.57a2.77,2.77,0,0,0-.75-.12.8.8,0,0,0-.4.08.22.22,0,0,0-.14.21.31.31,0,0,0,0,.17.48.48,0,0,0,.19.13,2.45,2.45,0,0,0,.38.14,2.78,2.78,0,0,1,.5.21.75.75,0,0,1,.28.28.83.83,0,0,1,.09.41.91.91,0,0,1-.15.52,1,1,0,0,1-.41.34,1.48,1.48,0,0,1-.61.12A2.9,2.9,0,0,1,79.66,22.81Z" transform="translate(-0.09 0.04)"/><path class="cls-3" d="M82.62,22.69a1.21,1.21,0,0,1-.34-.92V19.88h.65v1.86a.72.72,0,0,0,.17.51.6.6,0,0,0,.49.19.61.61,0,0,0,.49-.19.77.77,0,0,0,.17-.51V19.88h.64v1.89a1.2,1.2,0,0,1-.33.92,1.72,1.72,0,0,1-1.94,0Z" transform="translate(-0.09 0.04)"/><path class="cls-3" d="M85.63,22.79a.7.7,0,0,1-.15-.49V19.88h.64V22.1a.29.29,0,0,0,.07.23.33.33,0,0,0,.23.06H87.5l-.16.56H86.1A.59.59,0,0,1,85.63,22.79Z" transform="translate(-0.09 0.04)"/><path class="cls-3" d="M88.1,20.44h-1v-.56h2.64l-.15.56h-.88V23H88.1Z" transform="translate(-0.09 0.04)"/><path class="cls-3" d="M90.61,22.8a1.44,1.44,0,0,1-.57-.55,1.77,1.77,0,0,1,0-1.67,1.44,1.44,0,0,1,.57-.55,1.68,1.68,0,0,1,1.59,0,1.48,1.48,0,0,1,.56.55,1.59,1.59,0,0,1,.21.84,1.63,1.63,0,0,1-.21.83,1.48,1.48,0,0,1-.56.55,1.76,1.76,0,0,1-1.59,0Zm1.26-.5a.81.81,0,0,0,.32-.36,1.11,1.11,0,0,0,.12-.52,1.12,1.12,0,0,0-.12-.53.89.89,0,0,0-.32-.37.92.92,0,0,0-.47-.13.88.88,0,0,0-.46.13.83.83,0,0,0-.32.37,1.12,1.12,0,0,0-.12.53,1.11,1.11,0,0,0,.12.52.75.75,0,0,0,.32.36.81.81,0,0,0,.46.14A.84.84,0,0,0,91.87,22.3Z" transform="translate(-0.09 0.04)"/><path class="cls-3" d="M96,22.39l-.15.56h-.29a.6.6,0,0,1-.29-.06,1,1,0,0,1-.22-.23L94.62,22a.22.22,0,0,0-.21-.1H94.1V23h-.64V19.88H94.7a1.33,1.33,0,0,1,.84.23.9.9,0,0,1,.3.75,1.13,1.13,0,0,1-.16.56.81.81,0,0,1-.45.36l.35.51a.19.19,0,0,0,.1.08l.17,0Zm-1.38-1.05c.36,0,.54-.15.54-.46a.4.4,0,0,0-.14-.34.67.67,0,0,0-.41-.1H94.1v.9Z" transform="translate(-0.09 0.04)"/><path class="cls-3" d="M96.41,19.88h.65V23h-.65Z" transform="translate(-0.09 0.04)"/><path class="cls-3" d="M98.33,22.8a1.44,1.44,0,0,1-.57-.55,1.77,1.77,0,0,1,0-1.67,1.44,1.44,0,0,1,.57-.55,1.66,1.66,0,0,1,1.58,0,1.35,1.35,0,0,1,.56.55,1.59,1.59,0,0,1,.21.84,1.63,1.63,0,0,1-.21.83,1.35,1.35,0,0,1-.56.55,1.74,1.74,0,0,1-1.58,0Zm1.25-.5a.83.83,0,0,0,.33-.36,1.24,1.24,0,0,0,.11-.52,1.25,1.25,0,0,0-.11-.53.91.91,0,0,0-.33-.37.88.88,0,0,0-.46-.13.92.92,0,0,0-.47.13.89.89,0,0,0-.32.37,1.12,1.12,0,0,0-.12.53,1.11,1.11,0,0,0,.12.52.81.81,0,0,0,.32.36.84.84,0,0,0,.47.14A.81.81,0,0,0,99.58,22.3Z" transform="translate(-0.09 0.04)"/><path class="cls-3" d="M102.81,22.79a1.37,1.37,0,0,1-.56-.56,1.77,1.77,0,0,1-.18-.8,1.73,1.73,0,0,1,.2-.83,1.51,1.51,0,0,1,.58-.57,1.86,1.86,0,0,1,.87-.2,2.56,2.56,0,0,1,.84.13l-.06.56-.34-.09-.41,0a1.08,1.08,0,0,0-.52.12.81.81,0,0,0-.37.34,1.21,1.21,0,0,0-.13.55.94.94,0,0,0,1,1l.4,0,.35-.08.06.54a2.58,2.58,0,0,1-.38.1,3.55,3.55,0,0,1-.46,0A1.84,1.84,0,0,1,102.81,22.79Z" transform="translate(-0.09 0.04)"/><path class="cls-3" d="M105.63,22.8a1.44,1.44,0,0,1-.57-.55,1.77,1.77,0,0,1,0-1.67,1.44,1.44,0,0,1,.57-.55,1.66,1.66,0,0,1,1.58,0,1.44,1.44,0,0,1,.57.55,1.68,1.68,0,0,1,.2.84,1.73,1.73,0,0,1-.2.83,1.44,1.44,0,0,1-.57.55,1.74,1.74,0,0,1-1.58,0Zm1.25-.5a.83.83,0,0,0,.33-.36,1.24,1.24,0,0,0,.11-.52,1.25,1.25,0,0,0-.11-.53.91.91,0,0,0-.33-.37.88.88,0,0,0-.46-.13.92.92,0,0,0-.47.13.89.89,0,0,0-.32.37,1.12,1.12,0,0,0-.12.53,1.11,1.11,0,0,0,.12.52.81.81,0,0,0,.32.36.84.84,0,0,0,.47.14A.81.81,0,0,0,106.88,22.3Z" transform="translate(-0.09 0.04)"/><path class="cls-3" d="M108.48,19.88h.45l1.59,1.92V19.88h.6V23h-.43l-1.61-2v2h-.6Z" transform="translate(-0.09 0.04)"/><path class="cls-3" d="M112.76,19.88h1.09a2.71,2.71,0,0,1,.81.1,1.43,1.43,0,0,1,.55.32,1.75,1.75,0,0,1-.08,2.25,1.4,1.4,0,0,1-.52.3,2.19,2.19,0,0,1-.7.1h-1.15Zm1.16,2.51a1.33,1.33,0,0,0,.44-.06.83.83,0,0,0,.3-.2.85.85,0,0,0,.19-.32,1.42,1.42,0,0,0,.06-.42,1.34,1.34,0,0,0,0-.43.53.53,0,0,0-.16-.27.63.63,0,0,0-.31-.19,1.44,1.44,0,0,0-.45-.06h-.54v1.95Z" transform="translate(-0.09 0.04)"/><path class="cls-3" d="M116.38,22.69a1.21,1.21,0,0,1-.34-.92V19.88h.65v1.86a.72.72,0,0,0,.17.51.61.61,0,0,0,.49.19.6.6,0,0,0,.49-.19.77.77,0,0,0,.17-.51V19.88h.64v1.89a1.2,1.2,0,0,1-.33.92,1.72,1.72,0,0,1-1.94,0Z" transform="translate(-0.09 0.04)"/><path class="cls-3" d="M121.82,22.39l-.16.56h-.28a.6.6,0,0,1-.29-.06,1,1,0,0,1-.22-.23l-.46-.66a.22.22,0,0,0-.09-.08.24.24,0,0,0-.13,0h-.3V23h-.64V19.88h1.23a1.35,1.35,0,0,1,.85.23.9.9,0,0,1,.29.75,1.12,1.12,0,0,1-.15.56.84.84,0,0,1-.46.36l.36.51a.22.22,0,0,0,.09.08l.18,0Zm-1.38-1.05c.36,0,.53-.15.53-.46a.4.4,0,0,0-.13-.34.67.67,0,0,0-.41-.1h-.54v.9Z" transform="translate(-0.09 0.04)"/><path class="cls-3" d="M123.27,19.88h.59L125.09,23h-.69l-.23-.6H123l-.23.6H122Zm.69,1.91-.38-1h0l-.38,1Z" transform="translate(-0.09 0.04)"/><path class="cls-3" d="M125.46,19.88h1.14a1.37,1.37,0,0,1,.89.25.94.94,0,0,1,.31.78,1.05,1.05,0,0,1-.29.8,1.17,1.17,0,0,1-.86.28h-.55v1h-.64Zm1.14,1.55a.61.61,0,0,0,.41-.13.54.54,0,0,0,.13-.38c0-.32-.18-.48-.55-.48h-.49v1Z" transform="translate(-0.09 0.04)"/><path class="cls-3" d="M128.25,19.88h.65v1.19h1.3V19.88h.64V23h-.64V21.63h-1.3V23h-.65Z" transform="translate(-0.09 0.04)"/><path class="cls-3" d="M132.45,19.88H133L134.27,23h-.69l-.23-.6h-1.22l-.23.6h-.71Zm.69,1.91-.38-1h0l-.38,1Z" transform="translate(-0.09 0.04)"/><path class="cls-3" d="M135,20.44h-1v-.56h2.64l-.15.56h-.88V23H135Z" transform="translate(-0.09 0.04)"/></g></g></svg>